<svg xmlns="http://www.w3.org/2000/svg" viewBox="0 0 760 320" preserveAspectRatio="xMidYMid slice">
  <defs>
    <path id="dA" d="M-78,2 C-74,-36 -34,-58 4,-50 C46,-42 78,-20 74,14 C71,46 40,62 2,58 C-40,54 -82,40 -78,2 Z"></path>
    <path id="dB" d="M-70,-6 C-60,-40 -18,-52 18,-42 C52,-33 70,-6 62,22 C55,48 22,58 -12,50 C-48,42 -80,28 -70,-6 Z"></path>
  </defs>
  <g fill="none" stroke="#ffffff" stroke-opacity="0.07" stroke-width="1">
    <g transform="translate(165,120)">
      <use href="#dA" transform="scale(1.18) rotate(6)"></use>
      <use href="#dB" transform="translate(6,4) scale(0.92) rotate(-4)"></use>
      <use href="#dA" transform="translate(-4,8) scale(0.64) rotate(10)"></use>
      <use href="#dB" transform="translate(8,10) scale(0.38) rotate(-8)"></use>
      <use href="#dA" transform="translate(2,14) scale(0.16)"></use>
    </g>
    <g transform="translate(540,180)">
      <use href="#dB" transform="scale(1.55) rotate(-12)"></use>
      <use href="#dA" transform="translate(-10,-6) scale(1.2) rotate(8)"></use>
      <use href="#dB" transform="translate(-4,2) scale(0.86) rotate(-6)"></use>
      <use href="#dA" transform="translate(2,8) scale(0.55) rotate(14)"></use>
      <use href="#dB" transform="translate(-2,10) scale(0.26)"></use>
    </g>
    <path d="M-10,250 C120,232 210,272 330,250 C440,230 560,288 780,256" stroke-opacity="0.05"></path>
    <path d="M-10,78 C140,64 230,40 360,70 C470,96 600,52 780,84" stroke-opacity="0.045"></path>
  </g>
</svg>
